
        <svg xmlns="http://www.w3.org/2000/svg" xmlns:xlink="http://www.w3.org/1999/xlink" version="1.1" width="3171.4285714285716" 
        height="2127.6766256197848" viewBox="0 -154.28571428571428 3171.4285714285716 2127.6766256197848">
			
			<g transform="scale(8.571428571428571) translate(10, 10)">
				<defs id="SvgjsDefs4973"><linearGradient id="SvgjsLinearGradient4978"><stop id="SvgjsStop4979" stop-color="#8f5e25" offset="0"></stop><stop id="SvgjsStop4980" stop-color="#fbf4a1" offset="0.5"></stop><stop id="SvgjsStop4981" stop-color="#8f5e25" offset="1"></stop></linearGradient></defs><g id="SvgjsG4974" featureKey="monogramFeature-0" transform="matrix(2.9990861244216203,0,0,2.9990861244216203,102.93811418891369,-62.01862828053647)" fill="url(#SvgjsLinearGradient4978)"><path d="M1.86 33.6 c-1.68 0.96 -1.92 -0.36 -0.18 -1.32 c4.02 -2.22 10.2 -5.4 16.38 -7.5 c1.74 -5.82 2.82 -8.82 3.06 -9.36 c0.36 -0.96 1.62 -1.08 1.14 0.18 c-0.24 0.6 -1.38 4.02 -2.76 8.7 c3.12 -0.96 6.18 -1.56 8.88 -1.56 c8.58 0 13.32 1.8 13.32 6.84 c0 5.88 -6.9 10.92 -13.68 14.28 c-2.94 1.5 -10.2 5.1 -15.78 7.86 l-1.2 4.68 l18.06 -0.78 c1.74 -0.06 2.16 1.44 0.72 1.5 c-0.96 0.06 -11.22 0.48 -19.14 0.72 c-1.74 6.96 -3.12 12.66 -3.42 14.22 c-0.54 2.52 -0.54 2.76 -0.18 2.58 s0.6 0.12 -0.54 1.38 c-1.08 1.2 -1.68 0.54 -1.14 -1.62 l4.14 -16.5 c-3.9 0.12 -7.32 0.24 -7.8 0.18 c-1.56 -0.06 -2.7 -1.44 -0.48 -2.4 c1.14 -0.48 5.1 -2.46 10.08 -4.98 l1.8 -7.5 c1.68 -6.9 3.18 -12.42 4.38 -16.68 c-5.64 1.98 -11.58 4.8 -15.66 7.08 z M14.28 43.260000000000005 l-1.62 6.72 l13.98 -7.14 c9.42 -4.74 14.04 -9.48 14.04 -13.56 c0 -3.3 -4.86 -5.16 -12.3 -5.16 c-2.52 0 -5.88 0.78 -9.42 1.92 c-1.5 5.1 -3.24 11.34 -4.68 17.22 z M9.9 56.46 l1.02 -4.14 c-2.52 1.26 -4.62 2.22 -5.52 2.58 c-3.06 1.26 -3.42 1.74 -1.14 1.74 c0.6 0 2.94 -0.06 5.64 -0.18 z"></path></g><g id="SvgjsG4975" featureKey="nameFeature-0" transform="matrix(0.8656778087107773,0,0,0.8656778087107773,-3.6355874010168967,175.28057968288422)" fill="#cbb26a"><path d="M19.102 40 l-7.1484 -12.422 l-3.8672 0 l0 12.422 l-3.8867 0 l0 -27.617 l9.2969 0 c5.7813 0 8.418 3.5352 8.418 7.8711 c0 3.8477 -2.2656 6.5234 -6.0547 7.168 l7.793 12.578 l-4.5508 0 z M8.0859 15.742 l0 8.8672 l4.8828 0 c3.5938 0 5.2148 -1.7969 5.2148 -4.4141 c0 -2.5781 -1.6211 -4.4531 -5.2148 -4.4531 l-4.8828 0 z M50.80640234375 15.879000000000001 l-11.055 0 l0 8.5938 l9.7461 0 l0 3.4766 l-9.7461 0 l0 8.5352 l11.055 0 l0 3.5156 l-15.02 0 l0 -27.617 l15.02 0 l0 3.4961 z M81.7291796875 40 l-2.3047 -6.4453 l-12.344 0 l-2.3047 6.4453 l-4.043 0 l10.176 -27.617 l4.6875 0 l10.176 27.617 l-4.043 0 z M68.2919796875 30.1562 l9.9219 0 l-4.9609 -13.926 z M101.40279453125 36.4844 l9.4336 0 l0 3.5156 l-13.32 0 l0 -27.617 l3.8867 0 l0 24.102 z M126.466759375 36.4844 l9.4336 0 l0 3.5156 l-13.32 0 l0 -27.617 l3.8867 0 l0 24.102 z M157.23382421875 40.37109 c-5.7227 0 -10.156 -3.3789 -10.156 -9.6094 l0 -18.379 l3.8867 0 l0 17.832 c0 4.5508 2.7344 6.6406 6.2695 6.6406 s6.3281 -2.1094 6.3281 -6.6406 l0 -17.832 l3.8867 0 l0 18.379 c0 6.2305 -4.4531 9.6094 -10.215 9.6094 z M178.5673578125 40 l10.762 -14.414 l-10.293 -13.203 l4.707 0 l7.9102 10.43 l7.8711 -10.43 l4.7266 0 l-10.313 13.203 l10.762 14.414 l-4.9219 0 l-8.125 -11.387 l-8.1445 11.387 l-4.9414 0 z M231.42456640625 15.879000000000001 l-11.055 0 l0 8.5938 l9.7461 0 l0 3.4766 l-9.7461 0 l0 8.5352 l11.055 0 l0 3.5156 l-15.02 0 l0 -27.617 l15.02 0 l0 3.4961 z M290.96618359375 40 l-3.8086 0 l-1.8164 -22.461 l-8.5352 22.461 l-2.3633 0 l-8.4766 -22.383 l-1.8555 22.383 l-3.8281 0 l2.1289 -27.617 l5.2539 0 l7.9492 20.879 l7.9883 -20.879 l5.2539 0 z M319.8000546875 15.879000000000001 l-11.055 0 l0 8.5938 l9.7461 0 l0 3.4766 l-9.7461 0 l0 8.5352 l11.055 0 l0 3.5156 l-15.02 0 l0 -27.617 l15.02 0 l0 3.4961 z M332.85203203125 40 l0 -27.617 l9.1016 0 c8.4961 0 12.813 5.7031 12.813 13.789 c0 8.1445 -4.3164 13.828 -12.813 13.828 l-9.1016 0 z M336.73873203125 36.4844 l5.0586 0 c6.0352 0 8.9063 -4.0039 8.9063 -10.313 c0 -6.2695 -2.8711 -10.293 -8.9063 -10.293 l-5.0586 0 l0 20.605 z M367.818340625 40 l0 -27.617 l3.8867 0 l0 27.617 l-3.8867 0 z M404.46404296875 40 l-2.3047 -6.4453 l-12.344 0 l-2.3047 6.4453 l-4.043 0 l10.176 -27.617 l4.6875 0 l10.176 27.617 l-4.043 0 z M391.02684296875 30.1562 l9.9219 0 l-4.9609 -13.926 z"></path></g>
			</g>
		</svg>
	